Wavefont-wmin,rmax,amax.ufo
<glyph name="_2" format="2">
	<unicode hex="0102"/>
	<unicode hex="0062"/>
	<advance width="5"/>
	<outline>
		<component base="cap" yOffset="980"/>
		<component base="cap" yOffset="995"/>
		<contour>
			<point x="0" y="983" type="line"/>
			<point x="0" y="998" type="line"/>
			<point x="5" y="998" type="line"/>
			<point x="5" y="983" type="line"/>
		</contour>
	</outline>
</glyph>
<glyph name="_3" format="2">
	<unicode hex="0103"/>
	<advance width="5"/>
	<outline>
		<component base="cap" yOffset="970"/>
		<component base="cap" yOffset="995"/>
		<contour>
			<point x="0" y="973" type="line"/>
			<point x="0" y="998" type="line"/>
			<point x="5" y="998" type="line"/>
			<point x="5" y="973" type="line"/>
		</contour>
	</outline>
</glyph>
<glyph name="_5" format="2">
	<unicode hex="0105"/>
	<advance width="5"/>
	<outline>
		<component base="cap" yOffset="950"/>
		<component base="cap" yOffset="995"/>
		<contour>
			<point x="0" y="953" type="line"/>
			<point x="0" y="998" type="line"/>
			<point x="5" y="998" type="line"/>
			<point x="5" y="953" type="line"/>
		</contour>
	</outline>
</glyph>
<glyph name="_6" format="2">
	<unicode hex="0106"/>
	<unicode hex="0064"/>
	<advance width="4"/>
	<outline>
		<component base="cap" yOffset="940"/>
		<component base="cap" yOffset="996"/>
		<contour>
			<point x="0" y="942" type="line"/>
			<point x="0" y="998" type="line"/>
			<point x="4" y="998" type="line"/>
			<point x="4" y="942" type="line"/>
		</contour>
	</outline>
</glyph>
<glyph name="_7" format="2">
	<unicode hex="0107"/>
	<advance width="5"/>
	<outline>
		<component base="cap" yOffset="930"/>
		<component base="cap" yOffset="995"/>
		<contour>
			<point x="0" y="933" type="line"/>
			<point x="0" y="998" type="line"/>
			<point x="5" y="998" type="line"/>
			<point x="5" y="933" type="line"/>
		</contour>
	</outline>
</glyph>
<glyph name="_8" format="2">
	<unicode hex="0108"/>
	<unicode hex="0065"/>
	<advance width="1"/>
	<outline>
		<component base="cap" yOffset="920"/>
		<component base="cap" yOffset="999"/>
		<contour>
			<point x="0" y="921" type="line"/>
			<point x="0" y="1000" type="line"/>
			<point x="1" y="1000" type="line"/>
			<point x="1" y="921" type="line"/>
		</contour>
	</outline>
</glyph>
<glyph name="_9" format="2">
	<unicode hex="0109"/>
	<advance width="5"/>
	<outline>
		<component base="cap" yOffset="910"/>
		<component base="cap" yOffset="995"/>
		<contour>
			<point x="0" y="913" type="line"/>
			<point x="0" y="998" type="line"/>
			<point x="5" y="998" type="line"/>
			<point x="5" y="913" type="line"/>
		</contour>
	</outline>
</glyph>
<glyph name="_10" format="2">
	<unicode hex="010A"/>
	<unicode hex="0031"/>
	<unicode hex="0066"/>
	<advance width="5"/>
	<outline>
		<component base="cap" yOffset="900"/>
		<component base="cap" yOffset="995"/>
		<contour>
			<point x="0" y="903" type="line"/>
			<point x="0" y="998" type="line"/>
			<point x="5" y="998" type="line"/>
			<point x="5" y="903" type="line"/>
		</contour>
	</outline>
</glyph>
<glyph name="_12" format="2">
	<unicode hex="010C"/>
	<unicode hex="0067"/>
	<advance width="4"/>
	<outline>
		<component base="cap" yOffset="880"/>
		<component base="cap" yOffset="996"/>
		<contour>
			<point x="0" y="882" type="line"/>
			<point x="0" y="998" type="line"/>
			<point x="4" y="998" type="line"/>
			<point x="4" y="882" type="line"/>
		</contour>
	</outline>
</glyph>
<glyph name="_13" format="2">
	<unicode hex="010D"/>
	<advance width="4"/>
	<outline>
		<component base="cap" yOffset="870"/>
		<component base="cap" yOffset="996"/>
		<contour>
			<point x="0" y="872" type="line"/>
			<point x="0" y="998" type="line"/>
			<point x="4" y="998" type="line"/>
			<point x="4" y="872" type="line"/>
		</contour>
	</outline>
</glyph>
<glyph name="_14" format="2">
	<unicode hex="010E"/>
	<unicode hex="2582"/>
	<unicode hex="0068"/>
	<advance width="1"/>
	<outline>
		<component base="cap" yOffset="860"/>
		<component base="cap" yOffset="999"/>
		<contour>
			<point x="0" y="861" type="line"/>
			<point x="0" y="1000" type="line"/>
			<point x="1" y="1000" type="line"/>
			<point x="1" y="861" type="line"/>
		</contour>
	</outline>
</glyph>
<glyph name="_15" format="2">
	<unicode hex="010F"/>
	<advance width="4"/>
	<outline>
		<component base="cap" yOffset="850"/>
		<component base="cap" yOffset="996"/>
		<contour>
			<point x="0" y="852" type="line"/>
			<point x="0" y="998" type="line"/>
			<point x="4" y="998" type="line"/>
			<point x="4" y="852" type="line"/>
		</contour>
	</outline>
</glyph>
<glyph name="_16" format="2">
	<unicode hex="0110"/>
	<unicode hex="0069"/>
	<advance width="4"/>
	<outline>
		<component base="cap" yOffset="840"/>
		<component base="cap" yOffset="996"/>
		<contour>
			<point x="0" y="842" type="line"/>
			<point x="0" y="998" type="line"/>
			<point x="4" y="998" type="line"/>
			<point x="4" y="842" type="line"/>
		</contour>
	</outline>
</glyph>
<glyph name="_17" format="2">
	<unicode hex="0111"/>
	<advance width="5"/>
	<outline>
		<component base="cap" yOffset="830"/>
		<component base="cap" yOffset="995"/>
		<contour>
			<point x="0" y="833" type="line"/>
			<point x="0" y="998" type="line"/>
			<point x="5" y="998" type="line"/>
			<point x="5" y="833" type="line"/>
		</contour>
	</outline>
</glyph>
<glyph name="_18" format="2">
	<unicode hex="0112"/>
	<unicode hex="006A"/>
	<advance width="4"/>
	<outline>
		<component base="cap" yOffset="820"/>
		<component base="cap" yOffset="996"/>
		<contour>
			<point x="0" y="822" type="line"/>
			<point x="0" y="998" type="line"/>
			<point x="4" y="998" type="line"/>
			<point x="4" y="822" type="line"/>
		</contour>
	</outline>
</glyph>
<glyph name="_19" format="2">
	<unicode hex="0113"/>
	<advance width="4"/>
	<outline>
		<component base="cap" yOffset="810"/>
		<component base="cap" yOffset="996"/>
		<contour>
			<point x="0" y="812" type="line"/>
			<point x="0" y="998" type="line"/>
			<point x="4" y="998" type="line"/>
			<point x="4" y="812" type="line"/>
		</contour>
	</outline>
</glyph>
<glyph name="_20" format="2">
	<unicode hex="0114"/>
	<unicode hex="0032"/>
	<unicode hex="006B"/>
	<advance width="5"/>
	<outline>
		<component base="cap" yOffset="800"/>
		<component base="cap" yOffset="995"/>
		<contour>
			<point x="0" y="803" type="line"/>
			<point x="0" y="998" type="line"/>
			<point x="5" y="998" type="line"/>
			<point x="5" y="803" type="line"/>
		</contour>
	</outline>
</glyph>
<glyph name="_21" format="2">
	<unicode hex="0115"/>
	<advance width="1"/>
	<outline>
		<component base="cap" yOffset="790"/>
		<component base="cap" yOffset="999"/>
		<contour>
			<point x="0" y="791" type="line"/>
			<point x="0" y="1000" type="line"/>
			<point x="1" y="1000" type="line"/>
			<point x="1" y="791" type="line"/>
		</contour>
	</outline>
</glyph>
<glyph name="_23" format="2">
	<unicode hex="0117"/>
	<advance width="4"/>
	<outline>
		<component base="cap" yOffset="770"/>
		<component base="cap" yOffset="996"/>
		<contour>
			<point x="0" y="772" type="line"/>
			<point x="0" y="998" type="line"/>
			<point x="4" y="998" type="line"/>
			<point x="4" y="772" type="line"/>
		</contour>
	</outline>
</glyph>
<glyph name="_24" format="2">
	<unicode hex="0118"/>
	<unicode hex="006D"/>
	<advance width="5"/>
	<outline>
		<component base="cap" yOffset="760"/>
		<component base="cap" yOffset="995"/>
		<contour>
			<point x="0" y="763" type="line"/>
			<point x="0" y="998" type="line"/>
			<point x="5" y="998" type="line"/>
			<point x="5" y="763" type="line"/>
		</contour>
	</outline>
</glyph>
<glyph name="_25" format="2">
	<unicode hex="0119"/>
	<advance width="1"/>
	<outline>
		<component base="cap" yOffset="750"/>
		<component base="cap" yOffset="999"/>
		<contour>
			<point x="0" y="751" type="line"/>
			<point x="0" y="1000" type="line"/>
			<point x="1" y="1000" type="line"/>
			<point x="1" y="751" type="line"/>
		</contour>
	</outline>
</glyph>
<glyph name="_26" format="2">
	<unicode hex="011A"/>
	<unicode hex="006E"/>
	<advance width="1"/>
	<outline>
		<component base="cap" yOffset="740"/>
		<component base="cap" yOffset="999"/>
		<contour>
			<point x="0" y="741" type="line"/>
			<point x="0" y="1000" type="line"/>
			<point x="1" y="1000" type="line"/>
			<point x="1" y="741" type="line"/>
		</contour>
	</outline>
</glyph>
<glyph name="_27" format="2">
	<unicode hex="011B"/>
	<advance width="4"/>
	<outline>
		<component base="cap" yOffset="730"/>
		<component base="cap" yOffset="996"/>
		<contour>
			<point x="0" y="732" type="line"/>
			<point x="0" y="998" type="line"/>
			<point x="4" y="998" type="line"/>
			<point x="4" y="732" type="line"/>
		</contour>
	</outline>
</glyph>
<glyph name="_28" format="2">
	<unicode hex="011C"/>
	<unicode hex="2583"/>
	<unicode hex="006F"/>
	<advance width="4"/>
	<outline>
		<component base="cap" yOffset="720"/>
		<component base="cap" yOffset="996"/>
		<contour>
			<point x="0" y="722" type="line"/>
			<point x="0" y="998" type="line"/>
			<point x="4" y="998" type="line"/>
			<point x="4" y="722" type="line"/>
		</contour>
	</outline>
</glyph>
<glyph name="_29" format="2">
	<unicode hex="011D"/>
	<advance width="5"/>
	<outline>
		<component base="cap" yOffset="710"/>
		<component base="cap" yOffset="995"/>
		<contour>
			<point x="0" y="713" type="line"/>
			<point x="0" y="998" type="line"/>
			<point x="5" y="998" type="line"/>
			<point x="5" y="713" type="line"/>
		</contour>
	</outline>
</glyph>
<glyph name="_30" format="2">
	<unicode hex="011E"/>
	<unicode hex="0033"/>
	<unicode hex="0070"/>
	<advance width="4"/>
	<outline>
		<component base="cap" yOffset="700"/>
		<component base="cap" yOffset="996"/>
		<contour>
			<point x="0" y="702" type="line"/>
			<point x="0" y="998" type="line"/>
			<point x="4" y="998" type="line"/>
			<point x="4" y="702" type="line"/>
		</contour>
	</outline>
</glyph>
<glyph name="_31" format="2">
	<unicode hex="011F"/>
	<advance width="5"/>
	<outline>
		<component base="cap" yOffset="690"/>
		<component base="cap" yOffset="995"/>
		<contour>
			<point x="0" y="693" type="line"/>
			<point x="0" y="998" type="line"/>
			<point x="5" y="998" type="line"/>
			<point x="5" y="693" type="line"/>
		</contour>
	</outline>
</glyph>
<glyph name="_32" format="2">
	<unicode hex="0120"/>
	<unicode hex="0071"/>
	<advance width="4"/>
	<outline>
		<component base="cap" yOffset="680"/>
		<component base="cap" yOffset="996"/>
		<contour>
			<point x="0" y="682" type="line"/>
			<point x="0" y="998" type="line"/>
			<point x="4" y="998" type="line"/>
			<point x="4" y="682" type="line"/>
		</contour>
	</outline>
</glyph>
<glyph name="_33" format="2">
	<unicode hex="0121"/>
	<advance width="5"/>
	<outline>
		<component base="cap" yOffset="670"/>
		<component base="cap" yOffset="995"/>
		<contour>
			<point x="0" y="673" type="line"/>
			<point x="0" y="998" type="line"/>
			<point x="5" y="998" type="line"/>
			<point x="5" y="673" type="line"/>
		</contour>
	</outline>
</glyph>
<glyph name="_34" format="2">
	<unicode hex="0122"/>
	<unicode hex="0072"/>
	<advance width="4"/>
	<outline>
		<component base="cap" yOffset="660"/>
		<component base="cap" yOffset="996"/>
		<contour>
			<point x="0" y="662" type="line"/>
			<point x="0" y="998" type="line"/>
			<point x="4" y="998" type="line"/>
			<point x="4" y="662" type="line"/>
		</contour>
	</outline>
</glyph>
<glyph name="_35" format="2">
	<unicode hex="0123"/>
	<advance width="5"/>
	<outline>
		<component base="cap" yOffset="650"/>
		<component base="cap" yOffset="995"/>
		<contour>
			<point x="0" y="653" type="line"/>
			<point x="0" y="998" type="line"/>
			<point x="5" y="998" type="line"/>
			<point x="5" y="653" type="line"/>
		</contour>
	</outline>
</glyph>
<glyph name="_36" format="2">
	<unicode hex="0124"/>
	<unicode hex="0073"/>
	<advance width="5"/>
	<outline>
		<component base="cap" yOffset="640"/>
		<component base="cap" yOffset="995"/>
		<contour>
			<point x="0" y="643" type="line"/>
			<point x="0" y="998" type="line"/>
			<point x="5" y="998" type="line"/>
			<point x="5" y="643" type="line"/>
		</contour>
	</outline>
</glyph>
<glyph name="_37" format="2">
	<unicode hex="0125"/>
	<advance width="1"/>
	<outline>
		<component base="cap" yOffset="630"/>
		<component base="cap" yOffset="999"/>
		<contour>
			<point x="0" y="631" type="line"/>
			<point x="0" y="1000" type="line"/>
			<point x="1" y="1000" type="line"/>
			<point x="1" y="631" type="line"/>
		</contour>
	</outline>
</glyph>
<glyph name="_38" format="2">
	<unicode hex="0126"/>
	<unicode hex="0074"/>
	<advance width="4"/>
	<outline>
		<component base="cap" yOffset="620"/>
		<component base="cap" yOffset="996"/>
		<contour>
			<point x="0" y="622" type="line"/>
			<point x="0" y="998" type="line"/>
			<point x="4" y="998" type="line"/>
			<point x="4" y="622" type="line"/>
		</contour>
	</outline>
</glyph>
<glyph name="_39" format="2">
	<unicode hex="0127"/>
	<advance width="5"/>
	<outline>
		<component base="cap" yOffset="610"/>
		<component base="cap" yOffset="995"/>
		<contour>
			<point x="0" y="613" type="line"/>
			<point x="0" y="998" type="line"/>
			<point x="5" y="998" type="line"/>
			<point x="5" y="613" type="line"/>
		</contour>
	</outline>
</glyph>
<glyph name="_40" format="2">
	<unicode hex="0128"/>
	<unicode hex="0034"/>
	<unicode hex="0075"/>
	<advance width="1"/>
	<outline>
		<component base="cap" yOffset="600"/>
		<component base="cap" yOffset="999"/>
		<contour>
			<point x="0" y="601" type="line"/>
			<point x="0" y="1000" type="line"/>
			<point x="1" y="1000" type="line"/>
			<point x="1" y="601" type="line"/>
		</contour>
	</outline>
</glyph>
<glyph name="_41" format="2">
	<unicode hex="0129"/>
	<advance width="4"/>
	<outline>
		<component base="cap" yOffset="590"/>
		<component base="cap" yOffset="996"/>
		<contour>
			<point x="0" y="592" type="line"/>
			<point x="0" y="998" type="line"/>
			<point x="4" y="998" type="line"/>
			<point x="4" y="592" type="line"/>
		</contour>
	</outline>
</glyph>
<glyph name="_42" format="2">
	<unicode hex="012A"/>
	<unicode hex="2584"/>
	<unicode hex="0076"/>
	<advance width="4"/>
	<outline>
		<component base="cap" yOffset="580"/>
		<component base="cap" yOffset="996"/>
		<contour>
			<point x="0" y="582" type="line"/>
			<point x="0" y="998" type="line"/>
			<point x="4" y="998" type="line"/>
			<point x="4" y="582" type="line"/>
		</contour>
	</outline>
</glyph>
<glyph name="_43" format="2">
	<unicode hex="012B"/>
	<advance width="5"/>
	<outline>
		<component base="cap" yOffset="570"/>
		<component base="cap" yOffset="995"/>
		<contour>
			<point x="0" y="573" type="line"/>
			<point x="0" y="998" type="line"/>
			<point x="5" y="998" type="line"/>
			<point x="5" y="573" type="line"/>
		</contour>
	</outline>
</glyph>
<glyph name="_44" format="2">
	<unicode hex="012C"/>
	<unicode hex="0077"/>
	<advance width="4"/>
	<outline>
		<component base="cap" yOffset="560"/>
		<component base="cap" yOffset="996"/>
		<contour>
			<point x="0" y="562" type="line"/>
			<point x="0" y="998" type="line"/>
			<point x="4" y="998" type="line"/>
			<point x="4" y="562" type="line"/>
		</contour>
	</outline>
</glyph>
<glyph name="_45" format="2">
	<unicode hex="012D"/>
	<advance width="5"/>
	<outline>
		<component base="cap" yOffset="550"/>
		<component base="cap" yOffset="995"/>
		<contour>
			<point x="0" y="553" type="line"/>
			<point x="0" y="998" type="line"/>
			<point x="5" y="998" type="line"/>
			<point x="5" y="553" type="line"/>
		</contour>
	</outline>
</glyph>
<glyph name="_46" format="2">
	<unicode hex="012E"/>
	<unicode hex="0078"/>
	<advance width="4"/>
	<outline>
		<component base="cap" yOffset="540"/>
		<component base="cap" yOffset="996"/>
		<contour>
			<point x="0" y="542" type="line"/>
			<point x="0" y="998" type="line"/>
			<point x="4" y="998" type="line"/>
			<point x="4" y="542" type="line"/>
		</contour>
	</outline>
</glyph>
<glyph name="_47" format="2">
	<unicode hex="012F"/>
	<advance width="4"/>
	<outline>
		<component base="cap" yOffset="530"/>
		<component base="cap" yOffset="996"/>
		<contour>
			<point x="0" y="532" type="line"/>
			<point x="0" y="998" type="line"/>
			<point x="4" y="998" type="line"/>
			<point x="4" y="532" type="line"/>
		</contour>
	</outline>
</glyph>
<glyph name="_48" format="2">
	<unicode hex="0130"/>
	<unicode hex="0079"/>
	<advance width="1"/>
	<outline>
		<component base="cap" yOffset="520"/>
		<component base="cap" yOffset="999"/>
		<contour>
			<point x="0" y="521" type="line"/>
			<point x="0" y="1000" type="line"/>
			<point x="1" y="1000" type="line"/>
			<point x="1" y="521" type="line"/>
		</contour>
	</outline>
</glyph>
<glyph name="_50" format="2">
	<unicode hex="0132"/>
	<unicode hex="0035"/>
	<unicode hex="007A"/>
	<advance width="4"/>
	<outline>
		<component base="cap" yOffset="500"/>
		<component base="cap" yOffset="996"/>
		<contour>
			<point x="0" y="502" type="line"/>
			<point x="0" y="998" type="line"/>
			<point x="4" y="998" type="line"/>
			<point x="4" y="502" type="line"/>
		</contour>
	</outline>
</glyph>
<glyph name="_51" format="2">
	<unicode hex="0133"/>
	<advance width="4"/>
	<outline>
		<component base="cap" yOffset="490"/>
		<component base="cap" yOffset="996"/>
		<contour>
			<point x="0" y="492" type="line"/>
			<point x="0" y="998" type="line"/>
			<point x="4" y="998" type="line"/>
			<point x="4" y="492" type="line"/>
		</contour>
	</outline>
</glyph>
<glyph name="_52" format="2">
	<unicode hex="0134"/>
	<unicode hex="0041"/>
	<advance width="5"/>
	<outline>
		<component base="cap" yOffset="480"/>
		<component base="cap" yOffset="995"/>
		<contour>
			<point x="0" y="483" type="line"/>
			<point x="0" y="998" type="line"/>
			<point x="5" y="998" type="line"/>
			<point x="5" y="483" type="line"/>
		</contour>
	</outline>
</glyph>
<glyph name="_53" format="2">
	<unicode hex="0135"/>
	<advance width="5"/>
	<outline>
		<component base="cap" yOffset="470"/>
		<component base="cap" yOffset="995"/>
		<contour>
			<point x="0" y="473" type="line"/>
			<point x="0" y="998" type="line"/>
			<point x="5" y="998" type="line"/>
			<point x="5" y="473" type="line"/>
		</contour>
	</outline>
</glyph>
<glyph name="_55" format="2">
	<unicode hex="0137"/>
	<advance width="4"/>
	<outline>
		<component base="cap" yOffset="450"/>
		<component base="cap" yOffset="996"/>
		<contour>
			<point x="0" y="452" type="line"/>
			<point x="0" y="998" type="line"/>
			<point x="4" y="998" type="line"/>
			<point x="4" y="452" type="line"/>
		</contour>
	</outline>
</glyph>
<glyph name="_56" format="2">
	<unicode hex="0138"/>
	<unicode hex="2585"/>
	<unicode hex="0043"/>
	<advance width="5"/>
	<outline>
		<component base="cap" yOffset="440"/>
		<component base="cap" yOffset="995"/>
		<contour>
			<point x="0" y="443" type="line"/>
			<point x="0" y="998" type="line"/>
			<point x="5" y="998" type="line"/>
			<point x="5" y="443" type="line"/>
		</contour>
	</outline>
</glyph>
<glyph name="_57" format="2">
	<unicode hex="0139"/>
	<advance width="5"/>
	<outline>
		<component base="cap" yOffset="430"/>
		<component base="cap" yOffset="995"/>
		<contour>
			<point x="0" y="433" type="line"/>
			<point x="0" y="998" type="line"/>
			<point x="5" y="998" type="line"/>
			<point x="5" y="433" type="line"/>
		</contour>
	</outline>
</glyph>
<glyph name="_58" format="2">
	<unicode hex="013A"/>
	<unicode hex="0044"/>
	<advance width="4"/>
	<outline>
		<component base="cap" yOffset="420"/>
		<component base="cap" yOffset="996"/>
		<contour>
			<point x="0" y="422" type="line"/>
			<point x="0" y="998" type="line"/>
			<point x="4" y="998" type="line"/>
			<point x="4" y="422" type="line"/>
		</contour>
	</outline>
</glyph>
<glyph name="_59" format="2">
	<unicode hex="013B"/>
	<advance width="1"/>
	<outline>
		<component base="cap" yOffset="410"/>
		<component base="cap" yOffset="999"/>
		<contour>
			<point x="0" y="411" type="line"/>
			<point x="0" y="1000" type="line"/>
			<point x="1" y="1000" type="line"/>
			<point x="1" y="411" type="line"/>
		</contour>
	</outline>
</glyph>
<glyph name="_60" format="2">
	<unicode hex="013C"/>
	<unicode hex="0036"/>
	<unicode hex="0045"/>
	<advance width="4"/>
	<outline>
		<component base="cap" yOffset="400"/>
		<component base="cap" yOffset="996"/>
		<contour>
			<point x="0" y="402" type="line"/>
			<point x="0" y="998" type="line"/>
			<point x="4" y="998" type="line"/>
			<point x="4" y="402" type="line"/>
		</contour>
	</outline>
</glyph>
<glyph name="_61" format="2">
	<unicode hex="013D"/>
	<advance width="5"/>
	<outline>
		<component base="cap" yOffset="390"/>
		<component base="cap" yOffset="995"/>
		<contour>
			<point x="0" y="393" type="line"/>
			<point x="0" y="998" type="line"/>
			<point x="5" y="998" type="line"/>
			<point x="5" y="393" type="line"/>
		</contour>
	</outline>
</glyph>
<glyph name="_62" format="2">
	<unicode hex="013E"/>
	<unicode hex="0046"/>
	<advance width="1"/>
	<outline>
		<component base="cap" yOffset="380"/>
		<component base="cap" yOffset="999"/>
		<contour>
			<point x="0" y="381" type="line"/>
			<point x="0" y="1000" type="line"/>
			<point x="1" y="1000" type="line"/>
			<point x="1" y="381" type="line"/>
		</contour>
	</outline>
</glyph>
<glyph name="_63" format="2">
	<unicode hex="013F"/>
	<advance width="4"/>
	<outline>
		<component base="cap" yOffset="370"/>
		<component base="cap" yOffset="996"/>
		<contour>
			<point x="0" y="372" type="line"/>
			<point x="0" y="998" type="line"/>
			<point x="4" y="998" type="line"/>
			<point x="4" y="372" type="line"/>
		</contour>
	</outline>
</glyph>
<glyph name="_64" format="2">
	<unicode hex="0140"/>
	<unicode hex="0047"/>
	<advance width="1"/>
	<outline>
		<component base="cap" yOffset="360"/>
		<component base="cap" yOffset="999"/>
		<contour>
			<point x="0" y="361" type="line"/>
			<point x="0" y="1000" type="line"/>
			<point x="1" y="1000" type="line"/>
			<point x="1" y="361" type="line"/>
		</contour>
	</outline>
</glyph>
<glyph name="_65" format="2">
	<unicode hex="0141"/>
	<advance width="5"/>
	<outline>
		<component base="cap" yOffset="350"/>
		<component base="cap" yOffset="995"/>
		<contour>
			<point x="0" y="353" type="line"/>
			<point x="0" y="998" type="line"/>
			<point x="5" y="998" type="line"/>
			<point x="5" y="353" type="line"/>
		</contour>
	</outline>
</glyph>
<glyph name="_66" format="2">
	<unicode hex="0142"/>
	<unicode hex="0048"/>
	<advance width="5"/>
	<outline>
		<component base="cap" yOffset="340"/>
		<component base="cap" yOffset="995"/>
		<contour>
			<point x="0" y="343" type="line"/>
			<point x="0" y="998" type="line"/>
			<point x="5" y="998" type="line"/>
			<point x="5" y="343" type="line"/>
		</contour>
	</outline>
</glyph>
<glyph name="_68" format="2">
	<unicode hex="0144"/>
	<unicode hex="0049"/>
	<advance width="5"/>
	<outline>
		<component base="cap" yOffset="320"/>
		<component base="cap" yOffset="995"/>
		<contour>
			<point x="0" y="323" type="line"/>
			<point x="0" y="998" type="line"/>
			<point x="5" y="998" type="line"/>
			<point x="5" y="323" type="line"/>
		</contour>
	</outline>
</glyph>
<glyph name="_69" format="2">
	<unicode hex="0145"/>
	<advance width="5"/>
	<outline>
		<component base="cap" yOffset="310"/>
		<component base="cap" yOffset="995"/>
		<contour>
			<point x="0" y="313" type="line"/>
			<point x="0" y="998" type="line"/>
			<point x="5" y="998" type="line"/>
			<point x="5" y="313" type="line"/>
		</contour>
	</outline>
</glyph>
<glyph name="_70" format="2">
	<unicode hex="0146"/>
	<unicode hex="0037"/>
	<unicode hex="004A"/>
	<advance width="4"/>
	<outline>
		<component base="cap" yOffset="300"/>
		<component base="cap" yOffset="996"/>
		<contour>
			<point x="0" y="302" type="line"/>
			<point x="0" y="998" type="line"/>
			<point x="4" y="998" type="line"/>
			<point x="4" y="302" type="line"/>
		</contour>
	</outline>
</glyph>
<glyph name="_71" format="2">
	<unicode hex="0147"/>
	<advance width="5"/>
	<outline>
		<component base="cap" yOffset="290"/>
		<component base="cap" yOffset="995"/>
		<contour>
			<point x="0" y="293" type="line"/>
			<point x="0" y="998" type="line"/>
			<point x="5" y="998" type="line"/>
			<point x="5" y="293" type="line"/>
		</contour>
	</outline>
</glyph>
<glyph name="_72" format="2">
	<unicode hex="0148"/>
	<unicode hex="2586"/>
	<unicode hex="004B"/>
	<advance width="4"/>
	<outline>
		<component base="cap" yOffset="280"/>
		<component base="cap" yOffset="996"/>
		<contour>
			<point x="0" y="282" type="line"/>
			<point x="0" y="998" type="line"/>
			<point x="4" y="998" type="line"/>
			<point x="4" y="282" type="line"/>
		</contour>
	</outline>
</glyph>
<glyph name="_73" format="2">
	<unicode hex="0149"/>
	<advance width="5"/>
	<outline>
		<component base="cap" yOffset="270"/>
		<component base="cap" yOffset="995"/>
		<contour>
			<point x="0" y="273" type="line"/>
			<point x="0" y="998" type="line"/>
			<point x="5" y="998" type="line"/>
			<point x="5" y="273" type="line"/>
		</contour>
	</outline>
</glyph>
<glyph name="_74" format="2">
	<unicode hex="014A"/>
	<unicode hex="004C"/>
	<advance width="5"/>
	<outline>
		<component base="cap" yOffset="260"/>
		<component base="cap" yOffset="995"/>
		<contour>
			<point x="0" y="263" type="line"/>
			<point x="0" y="998" type="line"/>
			<point x="5" y="998" type="line"/>
			<point x="5" y="263" type="line"/>
		</contour>
	</outline>
</glyph>
<glyph name="_75" format="2">
	<unicode hex="014B"/>
	<advance width="4"/>
	<outline>
		<component base="cap" yOffset="250"/>
		<component base="cap" yOffset="996"/>
		<contour>
			<point x="0" y="252" type="line"/>
			<point x="0" y="998" type="line"/>
			<point x="4" y="998" type="line"/>
			<point x="4" y="252" type="line"/>
		</contour>
	</outline>
</glyph>
<glyph name="_76" format="2">
	<unicode hex="014C"/>
	<unicode hex="004D"/>
	<advance width="5"/>
	<outline>
		<component base="cap" yOffset="240"/>
		<component base="cap" yOffset="995"/>
		<contour>
			<point x="0" y="243" type="line"/>
			<point x="0" y="998" type="line"/>
			<point x="5" y="998" type="line"/>
			<point x="5" y="243" type="line"/>
		</contour>
	</outline>
</glyph>
<glyph name="_77" format="2">
	<unicode hex="014D"/>
	<advance width="4"/>
	<outline>
		<component base="cap" yOffset="230"/>
		<component base="cap" yOffset="996"/>
		<contour>
			<point x="0" y="232" type="line"/>
			<point x="0" y="998" type="line"/>
			<point x="4" y="998" type="line"/>
			<point x="4" y="232" type="line"/>
		</contour>
	</outline>
</glyph>
<glyph name="_78" format="2">
	<unicode hex="014E"/>
	<unicode hex="004E"/>
	<advance width="4"/>
	<outline>
		<component base="cap" yOffset="220"/>
		<component base="cap" yOffset="996"/>
		<contour>
			<point x="0" y="222" type="line"/>
			<point x="0" y="998" type="line"/>
			<point x="4" y="998" type="line"/>
			<point x="4" y="222" type="line"/>
		</contour>
	</outline>
</glyph>
<glyph name="_79" format="2">
	<unicode hex="014F"/>
	<advance width="4"/>
	<outline>
		<component base="cap" yOffset="210"/>
		<component base="cap" yOffset="996"/>
		<contour>
			<point x="0" y="212" type="line"/>
			<point x="0" y="998" type="line"/>
			<point x="4" y="998" type="line"/>
			<point x="4" y="212" type="line"/>
		</contour>
	</outline>
</glyph>
<glyph name="_82" format="2">
	<unicode hex="0152"/>
	<unicode hex="0050"/>
	<advance width="1"/>
	<outline>
		<component base="cap" yOffset="180"/>
		<component base="cap" yOffset="999"/>
		<contour>
			<point x="0" y="181" type="line"/>
			<point x="0" y="1000" type="line"/>
			<point x="1" y="1000" type="line"/>
			<point x="1" y="181" type="line"/>
		</contour>
	</outline>
</glyph>
<glyph name="_85" format="2">
	<unicode hex="0155"/>
	<advance width="5"/>
	<outline>
		<component base="cap" yOffset="150"/>
		<component base="cap" yOffset="995"/>
		<contour>
			<point x="0" y="153" type="line"/>
			<point x="0" y="998" type="line"/>
			<point x="5" y="998" type="line"/>
			<point x="5" y="153" type="line"/>
		</contour>
	</outline>
</glyph>
<glyph name="_86" format="2">
	<unicode hex="0156"/>
	<unicode hex="2587"/>
	<unicode hex="0052"/>
	<advance width="4"/>
	<outline>
		<component base="cap" yOffset="140"/>
		<component base="cap" yOffset="996"/>
		<contour>
			<point x="0" y="142" type="line"/>
			<point x="0" y="998" type="line"/>
			<point x="4" y="998" type="line"/>
			<point x="4" y="142" type="line"/>
		</contour>
	</outline>
</glyph>
<glyph name="_87" format="2">
	<unicode hex="0157"/>
	<advance width="4"/>
	<outline>
		<component base="cap" yOffset="130"/>
		<component base="cap" yOffset="996"/>
		<contour>
			<point x="0" y="132" type="line"/>
			<point x="0" y="998" type="line"/>
			<point x="4" y="998" type="line"/>
			<point x="4" y="132" type="line"/>
		</contour>
	</outline>
</glyph>
<glyph name="_88" format="2">
	<unicode hex="0158"/>
	<unicode hex="0053"/>
	<advance width="4"/>
	<outline>
		<component base="cap" yOffset="120"/>
		<component base="cap" yOffset="996"/>
		<contour>
			<point x="0" y="122" type="line"/>
			<point x="0" y="998" type="line"/>
			<point x="4" y="998" type="line"/>
			<point x="4" y="122" type="line"/>
		</contour>
	</outline>
</glyph>
<glyph name="_89" format="2">
	<unicode hex="0159"/>
	<advance width="4"/>
	<outline>
		<component base="cap" yOffset="110"/>
		<component base="cap" yOffset="996"/>
		<contour>
			<point x="0" y="112" type="line"/>
			<point x="0" y="998" type="line"/>
			<point x="4" y="998" type="line"/>
			<point x="4" y="112" type="line"/>
		</contour>
	</outline>
</glyph>
<glyph name="_90" format="2">
	<unicode hex="015A"/>
	<unicode hex="0039"/>
	<unicode hex="0054"/>
	<advance width="4"/>
	<outline>
		<component base="cap" yOffset="100"/>
		<component base="cap" yOffset="996"/>
		<contour>
			<point x="0" y="102" type="line"/>
			<point x="0" y="998" type="line"/>
			<point x="4" y="998" type="line"/>
			<point x="4" y="102" type="line"/>
		</contour>
	</outline>
</glyph>
<glyph name="_91" format="2">
	<unicode hex="015B"/>
	<advance width="5"/>
	<outline>
		<component base="cap" yOffset="90"/>
		<component base="cap" yOffset="995"/>
		<contour>
			<point x="0" y="93" type="line"/>
			<point x="0" y="998" type="line"/>
			<point x="5" y="998" type="line"/>
			<point x="5" y="93" type="line"/>
		</contour>
	</outline>
</glyph>
<glyph name="_92" format="2">
	<unicode hex="015C"/>
	<unicode hex="0055"/>
	<advance width="4"/>
	<outline>
		<component base="cap" yOffset="80"/>
		<component base="cap" yOffset="996"/>
		<contour>
			<point x="0" y="82" type="line"/>
			<point x="0" y="998" type="line"/>
			<point x="4" y="998" type="line"/>
			<point x="4" y="82" type="line"/>
		</contour>
	</outline>
</glyph>
<glyph name="_93" format="2">
	<unicode hex="015D"/>
	<advance width="5"/>
	<outline>
		<component base="cap" yOffset="70"/>
		<component base="cap" yOffset="995"/>
		<contour>
			<point x="0" y="73" type="line"/>
			<point x="0" y="998" type="line"/>
			<point x="5" y="998" type="line"/>
			<point x="5" y="73" type="line"/>
		</contour>
	</outline>
</glyph>
<glyph name="_94" format="2">
	<unicode hex="015E"/>
	<unicode hex="0056"/>
	<advance width="4"/>
	<outline>
		<component base="cap" yOffset="60"/>
		<component base="cap" yOffset="996"/>
		<contour>
			<point x="0" y="62" type="line"/>
			<point x="0" y="998" type="line"/>
			<point x="4" y="998" type="line"/>
			<point x="4" y="62" type="line"/>
		</contour>
	</outline>
</glyph>
<glyph name="_95" format="2">
	<unicode hex="015F"/>
	<advance width="1"/>
	<outline>
		<component base="cap" yOffset="50"/>
		<component base="cap" yOffset="999"/>
		<contour>
			<point x="0" y="51" type="line"/>
			<point x="0" y="1000" type="line"/>
			<point x="1" y="1000" type="line"/>
			<point x="1" y="51" type="line"/>
		</contour>
	</outline>
</glyph>
<glyph name="_97" format="2">
	<unicode hex="0161"/>
	<advance width="5"/>
	<outline>
		<component base="cap" yOffset="30"/>
		<component base="cap" yOffset="995"/>
		<contour>
			<point x="0" y="33" type="line"/>
			<point x="0" y="998" type="line"/>
			<point x="5" y="998" type="line"/>
			<point x="5" y="33" type="line"/>
		</contour>
	</outline>
</glyph>
<glyph name="_98" format="2">
	<unicode hex="0162"/>
	<unicode hex="0058"/>
	<advance width="1"/>
	<outline>
		<component base="cap" yOffset="20"/>
		<component base="cap" yOffset="999"/>
		<contour>
			<point x="0" y="21" type="line"/>
			<point x="0" y="1000" type="line"/>
			<point x="1" y="1000" type="line"/>
			<point x="1" y="21" type="line"/>
		</contour>
	</outline>
</glyph>
<glyph name="_100" format="2">
	<unicode hex="0164"/>
	<unicode hex="007C"/>
	<unicode hex="2588"/>
	<unicode hex="005A"/>
	<advance width="4"/>
	<outline>
		<component base="cap"/>
		<component base="cap" yOffset="996"/>
		<contour>
			<point x="0" y="2" type="line"/>
			<point x="0" y="998" type="line"/>
			<point x="4" y="998" type="line"/>
			<point x="4" y="2" type="line"/>
		</contour>
	</outline>
</glyph>
<glyph name="_102" format="2">
	<unicode hex="0166"/>
	<advance width="5"/>
	<outline>
		<component base="cap" yOffset="-20"/>
		<component base="cap" yOffset="995"/>
		<contour>
			<point x="0" y="-18" type="line"/>
			<point x="0" y="998" type="line"/>
			<point x="5" y="998" type="line"/>
			<point x="5" y="-18" type="line"/>
		</contour>
	</outline>
</glyph>
<glyph name="_103" format="2">
	<unicode hex="0167"/>
	<advance width="4"/>
	<outline>
		<component base="cap" yOffset="-30"/>
		<component base="cap" yOffset="996"/>
		<contour>
			<point x="0" y="-28" type="line"/>
			<point x="0" y="998" type="line"/>
			<point x="4" y="998" type="line"/>
			<point x="4" y="-28" type="line"/>
		</contour>
	</outline>
</glyph>
<glyph name="_104" format="2">
	<unicode hex="0168"/>
	<advance width="5"/>
	<outline>
		<component base="cap" yOffset="-40"/>
		<component base="cap" yOffset="995"/>
		<contour>
			<point x="0" y="-38" type="line"/>
			<point x="0" y="998" type="line"/>
			<point x="5" y="998" type="line"/>
			<point x="5" y="-38" type="line"/>
		</contour>
	</outline>
</glyph>
<glyph name="_105" format="2">
	<unicode hex="0169"/>
	<advance width="4"/>
	<outline>
		<component base="cap" yOffset="-50"/>
		<component base="cap" yOffset="996"/>
		<contour>
			<point x="0" y="-48" type="line"/>
			<point x="0" y="998" type="line"/>
			<point x="4" y="998" type="line"/>
			<point x="4" y="-48" type="line"/>
		</contour>
	</outline>
</glyph>
<glyph name="_107" format="2">
	<unicode hex="016B"/>
	<advance width="4"/>
	<outline>
		<component base="cap" yOffset="-70"/>
		<component base="cap" yOffset="996"/>
		<contour>
			<point x="0" y="-68" type="line"/>
			<point x="0" y="998" type="line"/>
			<point x="4" y="998" type="line"/>
			<point x="4" y="-68" type="line"/>
		</contour>
	</outline>
</glyph>
<glyph name="_108" format="2">
	<unicode hex="016C"/>
	<advance width="5"/>
	<outline>
		<component base="cap" yOffset="-80"/>
		<component base="cap" yOffset="995"/>
		<contour>
			<point x="0" y="-78" type="line"/>
			<point x="0" y="998" type="line"/>
			<point x="5" y="998" type="line"/>
			<point x="5" y="-78" type="line"/>
		</contour>
	</outline>
</glyph>
<glyph name="_109" format="2">
	<unicode hex="016D"/>
	<advance width="5"/>
	<outline>
		<component base="cap" yOffset="-90"/>
		<component base="cap" yOffset="995"/>
		<contour>
			<point x="0" y="-88" type="line"/>
			<point x="0" y="998" type="line"/>
			<point x="5" y="998" type="line"/>
			<point x="5" y="-88" type="line"/>
		</contour>
	</outline>
</glyph>
<glyph name="_110" format="2">
	<unicode hex="016E"/>
	<advance width="4"/>
	<outline>
		<component base="cap" yOffset="-100"/>
		<component base="cap" yOffset="996"/>
		<contour>
			<point x="0" y="-98" type="line"/>
			<point x="0" y="998" type="line"/>
			<point x="4" y="998" type="line"/>
			<point x="4" y="-98" type="line"/>
		</contour>
	</outline>
</glyph>
<glyph name="_111" format="2">
	<unicode hex="016F"/>
	<advance width="4"/>
	<outline>
		<component base="cap" yOffset="-110"/>
		<component base="cap" yOffset="996"/>
		<contour>
			<point x="0" y="-108" type="line"/>
			<point x="0" y="998" type="line"/>
			<point x="4" y="998" type="line"/>
			<point x="4" y="-108" type="line"/>
		</contour>
	</outline>
</glyph>
<glyph name="_112" format="2">
	<unicode hex="0170"/>
	<advance width="5"/>
	<outline>
		<component base="cap" yOffset="-120"/>
		<component base="cap" yOffset="995"/>
		<contour>
			<point x="0" y="-118" type="line"/>
			<point x="0" y="998" type="line"/>
			<point x="5" y="998" type="line"/>
			<point x="5" y="-118" type="line"/>
		</contour>
	</outline>
</glyph>
<glyph name="_113" format="2">
	<unicode hex="0171"/>
	<advance width="5"/>
	<outline>
		<component base="cap" yOffset="-130"/>
		<component base="cap" yOffset="995"/>
		<contour>
			<point x="0" y="-128" type="line"/>
			<point x="0" y="998" type="line"/>
			<point x="5" y="998" type="line"/>
			<point x="5" y="-128" type="line"/>
		</contour>
	</outline>
</glyph>
<glyph name="_117" format="2">
	<unicode hex="0175"/>
	<advance width="5"/>
	<outline>
		<component base="cap" yOffset="-170"/>
		<component base="cap" yOffset="995"/>
		<contour>
			<point x="0" y="-168" type="line"/>
			<point x="0" y="998" type="line"/>
			<point x="5" y="998" type="line"/>
			<point x="5" y="-168" type="line"/>
		</contour>
	</outline>
</glyph>
<glyph name="_119" format="2">
	<unicode hex="0177"/>
	<advance width="5"/>
	<outline>
		<component base="cap" yOffset="-190"/>
		<component base="cap" yOffset="995"/>
		<contour>
			<point x="0" y="-188" type="line"/>
			<point x="0" y="998" type="line"/>
			<point x="5" y="998" type="line"/>
			<point x="5" y="-188" type="line"/>
		</contour>
	</outline>
</glyph>
<glyph name="_123" format="2">
	<unicode hex="017B"/>
	<advance width="4"/>
	<outline>
		<component base="cap" yOffset="-230"/>
		<component base="cap" yOffset="996"/>
		<contour>
			<point x="0" y="-228" type="line"/>
			<point x="0" y="998" type="line"/>
			<point x="4" y="998" type="line"/>
			<point x="4" y="-228" type="line"/>
		</contour>
	</outline>
</glyph>
<glyph name="_124" format="2">
	<unicode hex="017C"/>
	<advance width="4"/>
	<outline>
		<component base="cap" yOffset="-240"/>
		<component base="cap" yOffset="996"/>
		<contour>
			<point x="0" y="-238" type="line"/>
			<point x="0" y="998" type="line"/>
			<point x="4" y="998" type="line"/>
			<point x="4" y="-238" type="line"/>
		</contour>
	</outline>
</glyph>
<glyph name="_126" format="2">
	<unicode hex="017E"/>
	<advance width="4"/>
	<outline>
		<component base="cap" yOffset="-260"/>
		<component base="cap" yOffset="996"/>
		<contour>
			<point x="0" y="-258" type="line"/>
			<point x="0" y="998" type="line"/>
			<point x="4" y="998" type="line"/>
			<point x="4" y="-258" type="line"/>
		</contour>
	</outline>
</glyph>
<glyph name="_10.clip" format="2">
	<advance width="5"/>
	<outline>
		<contour>
			<point x="0" y="977.5"/>
			<point x="22.5" y="1000"/>
			<point x="50" y="1000" type="curve" smooth="yes"/>
			<point x="-45" y="1000" type="line"/>
			<point x="-17.5" y="1000"/>
			<point x="5" y="977.5"/>
			<point x="5" y="950" type="curve" smooth="yes"/>
			<point x="5" y="950" type="line"/>
			<point x="5" y="922.5"/>
			<point x="-17.5" y="900"/>
			<point x="-45" y="900" type="curve" smooth="yes"/>
			<point x="50" y="900" type="line"/>
			<point x="22.5" y="900"/>
			<point x="0" y="922.5"/>
			<point x="0" y="950" type="curve" smooth="yes"/>
			<point x="0" y="950" type="line"/>
		</contour>
	</outline>
</glyph>
<glyph name="_12.clip" format="2">
	<advance width="5"/>
	<outline>
		<contour>
			<point x="0" y="973"/>
			<point x="26" y="1000"/>
			<point x="60" y="1000" type="curve" smooth="yes"/>
			<point x="-55" y="1000" type="line"/>
			<point x="-21" y="1000"/>
			<point x="5" y="973"/>
			<point x="5" y="940" type="curve" smooth="yes"/>
			<point x="5" y="940" type="line"/>
			<point x="5" y="907"/>
			<point x="-21" y="880"/>
			<point x="-55" y="880" type="curve" smooth="yes"/>
			<point x="60" y="880" type="line"/>
			<point x="26" y="880"/>
			<point x="0" y="907"/>
			<point x="0" y="940" type="curve" smooth="yes"/>
			<point x="0" y="940" type="line"/>
		</contour>
	</outline>
</glyph>
<glyph name="_13.clip" format="2">
	<advance width="4"/>
	<outline>
		<contour>
			<point x="0" y="970.75"/>
			<point x="29.25" y="1000"/>
			<point x="65" y="1000" type="curve" smooth="yes"/>
			<point x="-61" y="1000" type="line"/>
			<point x="-25.25" y="1000"/>
			<point x="4" y="970.75"/>
			<point x="4" y="935" type="curve" smooth="yes"/>
			<point x="4" y="935" type="line"/>
			<point x="4" y="899.25"/>
			<point x="-25.25" y="870"/>
			<point x="-61" y="870" type="curve" smooth="yes"/>
			<point x="65" y="870" type="line"/>
			<point x="29.25" y="870"/>
			<point x="0" y="899.25"/>
			<point x="0" y="935" type="curve" smooth="yes"/>
			<point x="0" y="935" type="line"/>
		</contour>
	</outline>
</glyph>
<glyph name="_16.clip" format="2">
	<advance width="4"/>
	<outline>
		<contour>
			<point x="0" y="964"/>
			<point x="36" y="1000"/>
			<point x="80" y="1000" type="curve" smooth="yes"/>
			<point x="-76" y="1000" type="line"/>
			<point x="-32" y="1000"/>
			<point x="4" y="964"/>
			<point x="4" y="920" type="curve" smooth="yes"/>
			<point x="4" y="920" type="line"/>
			<point x="4" y="876"/>
			<point x="-32" y="840"/>
			<point x="-76" y="840" type="curve" smooth="yes"/>
			<point x="80" y="840" type="line"/>
			<point x="36" y="840"/>
			<point x="0" y="876"/>
			<point x="0" y="920" type="curve" smooth="yes"/>
			<point x="0" y="920" type="line"/>
		</contour>
	</outline>
</glyph>
<glyph name="_17.clip" format="2">
	<advance width="4"/>
	<outline>
		<contour>
			<point x="0" y="961.75"/>
			<point x="38.25" y="1000"/>
			<point x="85" y="1000" type="curve" smooth="yes"/>
			<point x="-81" y="1000" type="line"/>
			<point x="-34.25" y="1000"/>
			<point x="4" y="961.75"/>
			<point x="4" y="915" type="curve" smooth="yes"/>
			<point x="4" y="915" type="line"/>
			<point x="4" y="868.25"/>
			<point x="-34.25" y="830"/>
			<point x="-81" y="830" type="curve" smooth="yes"/>
			<point x="85" y="830" type="line"/>
			<point x="38.25" y="830"/>
			<point x="0" y="868.25"/>
			<point x="0" y="915" type="curve" smooth="yes"/>
			<point x="0" y="915" type="line"/>
		</contour>
	</outline>
</glyph>
<glyph name="_18.clip" format="2">
	<advance width="5"/>
	<outline>
		<contour>
			<point x="0" y="959.5"/>
			<point x="40.5" y="1000"/>
			<point x="90" y="1000" type="curve" smooth="yes"/>
			<point x="-85" y="1000" type="line"/>
			<point x="-35.5" y="1000"/>
			<point x="5" y="959.5"/>
			<point x="5" y="910" type="curve" smooth="yes"/>
			<point x="5" y="910" type="line"/>
			<point x="5" y="860.5"/>
			<point x="-35.5" y="820"/>
			<point x="-85" y="820" type="curve" smooth="yes"/>
			<point x="90" y="820" type="line"/>
			<point x="40.5" y="820"/>
			<point x="0" y="860.5"/>
			<point x="0" y="910" type="curve" smooth="yes"/>
			<point x="0" y="910" type="line"/>
		</contour>
	</outline>
</glyph>
<glyph name="_21.clip" format="2">
	<advance width="4"/>
	<outline>
		<contour>
			<point x="0" y="952.75"/>
			<point x="47.25" y="1000"/>
			<point x="105" y="1000" type="curve" smooth="yes"/>
			<point x="-101" y="1000" type="line"/>
			<point x="-43.25" y="1000"/>
			<point x="4" y="952.75"/>
			<point x="4" y="895" type="curve" smooth="yes"/>
			<point x="4" y="895" type="line"/>
			<point x="4" y="837.25"/>
			<point x="-43.25" y="790"/>
			<point x="-101" y="790" type="curve" smooth="yes"/>
			<point x="105" y="790" type="line"/>
			<point x="47.25" y="790"/>
			<point x="0" y="837.25"/>
			<point x="0" y="895" type="curve" smooth="yes"/>
			<point x="0" y="895" type="line"/>
		</contour>
	</outline>
</glyph>
<glyph name="_22.clip" format="2">
	<advance width="1"/>
	<outline>
		<contour>
			<point x="0" y="950.5"/>
			<point x="49.5" y="1000"/>
			<point x="110" y="1000" type="curve" smooth="yes"/>
			<point x="-109" y="1000" type="line"/>
			<point x="-48.5" y="1000"/>
			<point x="1" y="950.5"/>
			<point x="1" y="890" type="curve" smooth="yes"/>
			<point x="1" y="890" type="line"/>
			<point x="1" y="829.5"/>
			<point x="-48.5" y="780"/>
			<point x="-109" y="780" type="curve" smooth="yes"/>
			<point x="110" y="780" type="line"/>
			<point x="49.5" y="780"/>
			<point x="0" y="829.5"/>
			<point x="0" y="890" type="curve" smooth="yes"/>
			<point x="0" y="890" type="line"/>
		</contour>
	</outline>
</glyph>
<glyph name="_23.clip" format="2">
	<advance width="5"/>
	<outline>
		<contour>
			<point x="0" y="948.25"/>
			<point x="51.75" y="1000"/>
			<point x="115" y="1000" type="curve" smooth="yes"/>
			<point x="-110" y="1000" type="line"/>
			<point x="-46.75" y="1000"/>
			<point x="5" y="948.25"/>
			<point x="5" y="885" type="curve" smooth="yes"/>
			<point x="5" y="885" type="line"/>
			<point x="5" y="821.75"/>
			<point x="-46.75" y="770"/>
			<point x="-110" y="770" type="curve" smooth="yes"/>
			<point x="115" y="770" type="line"/>
			<point x="51.75" y="770"/>
			<point x="0" y="821.75"/>
			<point x="0" y="885" type="curve" smooth="yes"/>
			<point x="0" y="885" type="line"/>
		</contour>
	</outline>
</glyph>
<glyph name="_24.clip" format="2">
	<advance width="5"/>
	<outline>
		<contour>
			<point x="0" y="946"/>
			<point x="53" y="1000"/>
			<point x="120" y="1000" type="curve" smooth="yes"/>
			<point x="-115" y="1000" type="line"/>
			<point x="-48" y="1000"/>
			<point x="5" y="946"/>
			<point x="5" y="880" type="curve" smooth="yes"/>
			<point x="5" y="880" type="line"/>
			<point x="5" y="814"/>
			<point x="-48" y="760"/>
			<point x="-115" y="760" type="curve" smooth="yes"/>
			<point x="120" y="760" type="line"/>
			<point x="53" y="760"/>
			<point x="0" y="814"/>
			<point x="0" y="880" type="curve" smooth="yes"/>
			<point x="0" y="880" type="line"/>
		</contour>
	</outline>
</glyph>
<glyph name="_26.clip" format="2">
	<advance width="4"/>
	<outline>
		<contour>
			<point x="0" y="941.5"/>
			<point x="58.5" y="1000"/>
			<point x="130" y="1000" type="curve" smooth="yes"/>
			<point x="-126" y="1000" type="line"/>
			<point x="-54.5" y="1000"/>
			<point x="4" y="941.5"/>
			<point x="4" y="870" type="curve" smooth="yes"/>
			<point x="4" y="870" type="line"/>
			<point x="4" y="798.5"/>
			<point x="-54.5" y="740"/>
			<point x="-126" y="740" type="curve" smooth="yes"/>
			<point x="130" y="740" type="line"/>
			<point x="58.5" y="740"/>
			<point x="0" y="798.5"/>
			<point x="0" y="870" type="curve" smooth="yes"/>
			<point x="0" y="870" type="line"/>
		</contour>
	</outline>
</glyph>
<glyph name="_28.clip" format="2">
	<advance width="4"/>
	<outline>
		<contour>
			<point x="0" y="937"/>
			<point x="62" y="1000"/>
			<point x="140" y="1000" type="curve" smooth="yes"/>
			<point x="-136" y="1000" type="line"/>
			<point x="-58" y="1000"/>
			<point x="4" y="937"/>
			<point x="4" y="860" type="curve" smooth="yes"/>
			<point x="4" y="860" type="line"/>
			<point x="4" y="783"/>
			<point x="-58" y="720"/>
			<point x="-136" y="720" type="curve" smooth="yes"/>
			<point x="140" y="720" type="line"/>
			<point x="62" y="720"/>
			<point x="0" y="783"/>
			<point x="0" y="860" type="curve" smooth="yes"/>
			<point x="0" y="860" type="line"/>
		</contour>
	</outline>
</glyph>
<glyph name="_29.clip" format="2">
	<advance width="4"/>
	<outline>
		<contour>
			<point x="0" y="934.75"/>
			<point x="65.25" y="1000"/>
			<point x="145" y="1000" type="curve" smooth="yes"/>
			<point x="-141" y="1000" type="line"/>
			<point x="-61.25" y="1000"/>
			<point x="4" y="934.75"/>
			<point x="4" y="855" type="curve" smooth="yes"/>
			<point x="4" y="855" type="line"/>
			<point x="4" y="775.25"/>
			<point x="-61.25" y="710"/>
			<point x="-141" y="710" type="curve" smooth="yes"/>
			<point x="145" y="710" type="line"/>
			<point x="65.25" y="710"/>
			<point x="0" y="775.25"/>
			<point x="0" y="855" type="curve" smooth="yes"/>
			<point x="0" y="855" type="line"/>
		</contour>
	</outline>
</glyph>
<glyph name="_30.clip" format="2">
	<advance width="4"/>
	<outline>
		<contour>
			<point x="0" y="932.5"/>
			<point x="67.5" y="1000"/>
			<point x="150" y="1000" type="curve" smooth="yes"/>
			<point x="-146" y="1000" type="line"/>
			<point x="-63.5" y="1000"/>
			<point x="4" y="932.5"/>
			<point x="4" y="850" type="curve" smooth="yes"/>
			<point x="4" y="850" type="line"/>
			<point x="4" y="767.5"/>
			<point x="-63.5" y="700"/>
			<point x="-146" y="700" type="curve" smooth="yes"/>
			<point x="150" y="700" type="line"/>
			<point x="67.5" y="700"/>
			<point x="0" y="767.5"/>
			<point x="0" y="850" type="curve" smooth="yes"/>
			<point x="0" y="850" type="line"/>
		</contour>
	</outline>
</glyph>
<glyph name="_32.clip" format="2">
	<advance width="4"/>
	<outline>
		<contour>
			<point x="0" y="928"/>
			<point x="72" y="1000"/>
			<point x="160" y="1000" type="curve" smooth="yes"/>
			<point x="-156" y="1000" type="line"/>
			<point x="-68" y="1000"/>
			<point x="4" y="928"/>
			<point x="4" y="840" type="curve" smooth="yes"/>
			<point x="4" y="840" type="line"/>
			<point x="4" y="752"/>
			<point x="-68" y="680"/>
			<point x="-156" y="680" type="curve" smooth="yes"/>
			<point x="160" y="680" type="line"/>
			<point x="72" y="680"/>
			<point x="0" y="752"/>
			<point x="0" y="840" type="curve" smooth="yes"/>
			<point x="0" y="840" type="line"/>
		</contour>
	</outline>
</glyph>
<glyph name="_35.clip" format="2">
	<advance width="4"/>
	<outline>
		<contour>
			<point x="0" y="921.25"/>
			<point x="78.75" y="1000"/>
			<point x="175" y="1000" type="curve" smooth="yes"/>
			<point x="-171" y="1000" type="line"/>
			<point x="-74.75" y="1000"/>
			<point x="4" y="921.25"/>
			<point x="4" y="825" type="curve" smooth="yes"/>
			<point x="4" y="825" type="line"/>
			<point x="4" y="728.75"/>
			<point x="-74.75" y="650"/>
			<point x="-171" y="650" type="curve" smooth="yes"/>
			<point x="175" y="650" type="line"/>
			<point x="78.75" y="650"/>
			<point x="0" y="728.75"/>
			<point x="0" y="825" type="curve" smooth="yes"/>
			<point x="0" y="825" type="line"/>
		</contour>
	</outline>
</glyph>
<glyph name="_37.clip" format="2">
	<advance width="4"/>
	<outline>
		<contour>
			<point x="0" y="916.75"/>
			<point x="83.25" y="1000"/>
			<point x="185" y="1000" type="curve" smooth="yes"/>
			<point x="-181" y="1000" type="line"/>
			<point x="-79.25" y="1000"/>
			<point x="4" y="916.75"/>
			<point x="4" y="815" type="curve" smooth="yes"/>
			<point x="4" y="815" type="line"/>
			<point x="4" y="713.25"/>
			<point x="-79.25" y="630"/>
			<point x="-181" y="630" type="curve" smooth="yes"/>
			<point x="185" y="630" type="line"/>
			<point x="83.25" y="630"/>
			<point x="0" y="713.25"/>
			<point x="0" y="815" type="curve" smooth="yes"/>
			<point x="0" y="815" type="line"/>
		</contour>
	</outline>
</glyph>
<glyph name="_4.clip" format="2">
	<advance width="4"/>
	<outline>
		<contour>
			<point x="0" y="991"/>
			<point x="9" y="1000"/>
			<point x="20" y="1000" type="curve" smooth="yes"/>
			<point x="-16" y="1000" type="line"/>
			<point x="-5" y="1000"/>
			<point x="4" y="991"/>
			<point x="4" y="980" type="curve" smooth="yes"/>
			<point x="4" y="980" type="line"/>
			<point x="4" y="969"/>
			<point x="-5" y="960"/>
			<point x="-16" y="960" type="curve" smooth="yes"/>
			<point x="20" y="960" type="line"/>
			<point x="9" y="960"/>
			<point x="0" y="969"/>
			<point x="0" y="980" type="curve" smooth="yes"/>
			<point x="0" y="980" type="line"/>
		</contour>
	</outline>
</glyph>
<glyph name="_40.clip" format="2">
	<advance width="4"/>
	<outline>
		<contour>
			<point x="0" y="910"/>
			<point x="89" y="1000"/>
			<point x="200" y="1000" type="curve" smooth="yes"/>
			<point x="-196" y="1000" type="line"/>
			<point x="-85" y="1000"/>
			<point x="4" y="910"/>
			<point x="4" y="800" type="curve" smooth="yes"/>
			<point x="4" y="800" type="line"/>
			<point x="4" y="690"/>
			<point x="-85" y="600"/>
			<point x="-196" y="600" type="curve" smooth="yes"/>
			<point x="200" y="600" type="line"/>
			<point x="89" y="600"/>
			<point x="0" y="690"/>
			<point x="0" y="800" type="curve" smooth="yes"/>
			<point x="0" y="800" type="line"/>
		</contour>
	</outline>
</glyph>
<glyph name="_5.clip" format="2">
	<advance width="4"/>
	<outline>
		<contour>
			<point x="0" y="988.75"/>
			<point x="11.25" y="1000"/>
			<point x="25" y="1000" type="curve" smooth="yes"/>
			<point x="-21" y="1000" type="line"/>
			<point x="-7.25" y="1000"/>
			<point x="4" y="988.75"/>
			<point x="4" y="975" type="curve" smooth="yes"/>
			<point x="4" y="975" type="line"/>
			<point x="4" y="961.25"/>
			<point x="-7.25" y="950"/>
			<point x="-21" y="950" type="curve" smooth="yes"/>
			<point x="25" y="950" type="line"/>
			<point x="11.25" y="950"/>
			<point x="0" y="961.25"/>
			<point x="0" y="975" type="curve" smooth="yes"/>
			<point x="0" y="975" type="line"/>
		</contour>
	</outline>
</glyph>
<glyph name="_6.clip" format="2">
	<advance width="4"/>
	<outline>
		<contour>
			<point x="0" y="986.5"/>
			<point x="13.5" y="1000"/>
			<point x="30" y="1000" type="curve" smooth="yes"/>
			<point x="-26" y="1000" type="line"/>
			<point x="-9.5" y="1000"/>
			<point x="4" y="986.5"/>
			<point x="4" y="970" type="curve" smooth="yes"/>
			<point x="4" y="970" type="line"/>
			<point x="4" y="953.5"/>
			<point x="-9.5" y="940"/>
			<point x="-26" y="940" type="curve" smooth="yes"/>
			<point x="30" y="940" type="line"/>
			<point x="13.5" y="940"/>
			<point x="0" y="953.5"/>
			<point x="0" y="970" type="curve" smooth="yes"/>
			<point x="0" y="970" type="line"/>
		</contour>
	</outline>
</glyph>
<glyph name="_7.clip" format="2">
	<advance width="4"/>
	<outline>
		<contour>
			<point x="0" y="984.25"/>
			<point x="15.75" y="1000"/>
			<point x="35" y="1000" type="curve" smooth="yes"/>
			<point x="-31" y="1000" type="line"/>
			<point x="-11.75" y="1000"/>
			<point x="4" y="984.25"/>
			<point x="4" y="965" type="curve" smooth="yes"/>
			<point x="4" y="965" type="line"/>
			<point x="4" y="945.75"/>
			<point x="-11.75" y="930"/>
			<point x="-31" y="930" type="curve" smooth="yes"/>
			<point x="35" y="930" type="line"/>
			<point x="15.75" y="930"/>
			<point x="0" y="945.75"/>
			<point x="0" y="965" type="curve" smooth="yes"/>
			<point x="0" y="965" type="line"/>
		</contour>
	</outline>
</glyph>
<glyph name="_8.clip" format="2">
	<advance width="5"/>
	<outline>
		<contour>
			<point x="0" y="982"/>
			<point x="18" y="1000"/>
			<point x="40" y="1000" type="curve" smooth="yes"/>
			<point x="-35" y="1000" type="line"/>
			<point x="-13" y="1000"/>
			<point x="5" y="982"/>
			<point x="5" y="960" type="curve" smooth="yes"/>
			<point x="5" y="960" type="line"/>
			<point x="5" y="938"/>
			<point x="-13" y="920"/>
			<point x="-35" y="920" type="curve" smooth="yes"/>
			<point x="40" y="920" type="line"/>
			<point x="18" y="920"/>
			<point x="0" y="938"/>
			<point x="0" y="960" type="curve" smooth="yes"/>
			<point x="0" y="960" type="line"/>
		</contour>
	</outline>
</glyph>
<glyph name="_9.clip" format="2">
	<advance width="5"/>
	<outline>
		<contour>
			<point x="0" y="979.75"/>
			<point x="20.25" y="1000"/>
			<point x="45" y="1000" type="curve" smooth="yes"/>
			<point x="-40" y="1000" type="line"/>
			<point x="-15.25" y="1000"/>
			<point x="5" y="979.75"/>
			<point x="5" y="955" type="curve" smooth="yes"/>
			<point x="5" y="955" type="line"/>
			<point x="5" y="930.25"/>
			<point x="-15.25" y="910"/>
			<point x="-40" y="910" type="curve" smooth="yes"/>
			<point x="45" y="910" type="line"/>
			<point x="20.25" y="910"/>
			<point x="0" y="930.25"/>
			<point x="0" y="955" type="curve" smooth="yes"/>
			<point x="0" y="955" type="line"/>
		</contour>
	</outline>
</glyph>
<glyph name="cap" format="2">
	<outline>
		<contour>
			<point x="0" y="0.775"/>
			<point x="0.225" y="1"/>
			<point x="0.5" y="1" type="curve" smooth="yes"/>
			<point x="0.5" y="1" type="line"/>
			<point x="0.775" y="1"/>
			<point x="1" y="0.775"/>
			<point x="1" y="0.5" type="curve" smooth="yes"/>
			<point x="1" y="0.5" type="line"/>
			<point x="1" y="0.225"/>
			<point x="0.775" y="0"/>
			<point x="0.5" y="0" type="curve" smooth="yes"/>
			<point x="0.5" y="0" type="line"/>
			<point x="0.225" y="0"/>
			<point x="0" y="0.225"/>
			<point x="0" y="0.5" type="curve" smooth="yes"/>
			<point x="0" y="0.5" type="line"/>
		</contour>
	</outline>
</glyph>
